<?xml version="1.0" standalone="no"?>
<!DOCTYPE svg PUBLIC "-//W3C//DTD SVG 20010904//EN"
    "http://www.w3.org/TR/2001/REC-SVG-20010904/DTD/svg10.dtd">
<svg version="1.0" xmlns="http://www.w3.org/2000/svg"
    width="300.000000pt" height="212.000000pt" viewBox="0 0 300.000000 212.000000"
    preserveAspectRatio="xMidYMid meet">
    <metadata>
        Created by potrace 1.10, written by Peter Selinger 2001-2011
    </metadata>
    <g transform="translate(0.000000,212.000000) scale(0.100000,-0.100000)"
        fill="#CEC7C7" stroke="none">
        <path d="M258 1989 c-17 -9 -18 -53 -18 -688 0 -564 2 -680 14 -690 10 -8 139
-11 470 -9 l456 3 0 -72 0 -71 -116 -4 -116 -3 -34 -37 c-28 -31 -34 -46 -34
-80 0 -25 8 -57 20 -76 37 -60 51 -62 447 -62 340 0 360 1 391 20 37 23 72 75
72 108 0 40 -28 91 -62 112 -28 17 -50 20 -140 20 l-108 0 0 70 0 70 468 2
467 3 3 684 c1 497 -1 688 -9 697 -10 12 -191 14 -1083 14 -709 -1 -1077 -4
-1088 -11z m2115 -686 c-1 -346 -5 -629 -8 -630 -3 -2 -466 -3 -1030 -3
l-1025 0 0 630 0 630 1033 0 1032 0 -2 -627z m-935 -772 l3 -71 -96 0 -95 0 0
73 0 72 92 -2 93 -1 3 -71z m280 -151 c26 -25 29 -66 5 -92 -15 -17 -40 -18
-380 -18 -350 0 -364 1 -383 20 -27 27 -25 56 5 85 l24 25 354 0 c342 0 354
-1 375 -20z"/>
        <path d="M1130 1620 c-19 -19 -20 -33 -20 -318 0 -333 2 -342 64 -342 17 0 36
4 41 9 6 5 114 68 240 141 127 72 238 139 248 147 9 9 17 26 17 38 0 35 -26
57 -140 122 -58 33 -169 97 -246 141 -78 45 -151 82 -163 82 -11 0 -30 -9 -41
-20z m258 -169 c103 -60 204 -117 225 -127 43 -21 45 -27 13 -42 -41 -19 -410
-234 -428 -250 -10 -8 -18 -13 -18 -11 0 2 -1 127 -3 277 -2 221 0 271 11 267
7 -3 97 -54 200 -114z"/>
    </g>
</svg>
